<?xml version="1.0" standalone="no"?><!DOCTYPE svg PUBLIC "-//W3C//DTD SVG 1.1//EN" "http://www.w3.org/Graphics/SVG/1.1/DTD/svg11.dtd"><svg t="1496414171991" class="icon" style="" viewBox="0 0 1024 1024" version="1.1" xmlns="http://www.w3.org/2000/svg" p-id="6267" xmlns:xlink="http://www.w3.org/1999/xlink" width="200" height="200"><defs><style type="text/css"></style></defs><path d="M653.322168 714.515367l0-302.806537c0-22.286586-18.098193-40.373523-40.375569-40.373523-22.276353 0-40.373523 18.086937-40.373523 40.373523l0 302.806537c0 22.286586 18.098193 40.373523 40.373523 40.373523C635.224997 754.889913 653.322168 736.802976 653.322168 714.515367M794.630521 351.148545c-22.276353 0-40.373523 18.08796-40.373523 40.374546l0 80.749092 0 322.993299c0 22.285562-18.098193 40.373523-40.374546 40.373523L310.141084 835.639005c-22.276353 0-40.373523-18.08796-40.373523-40.373523L269.767562 472.27116l0-80.749092c0-22.286586-18.098193-40.374546-40.374546-40.374546-22.276353 0-40.373523 18.08796-40.373523 40.374546l0 80.749092 0 343.179037c0 55.760978 45.184085 100.936877 100.93483 100.936877l444.115913 0c55.750745 0 100.935853-45.174875 100.935853-100.936877L835.00609 472.27116l0-80.749092C835.005067 369.235482 816.907896 351.148545 794.630521 351.148545M855.192851 209.839169l-143.498228 0c0 0-39.762609-6.703679-53.108568-24.811082-7.964392-10.881838-18.511609-22.364357-26.928303-32.517601-4.257977-5.124717-28.487821-22.917966-48.673559-22.917966L440.647417 129.59252c-17.664312 0-42.898019 16.96437-46.880727 21.7647-8.575306 10.340509-18.747993 22.88829-27.79709 33.533744-16.027022 18.856463-53.622268 24.948205-53.622268 24.948205L168.831708 209.839169c-22.277376 0-40.374546 18.086937-40.374546 40.373523 0 22.286586 18.098193 40.374546 40.374546 40.374546l173.265182 0c19.635199 0 44.573171-15.544021 52.024887-24.405853 8.220219-9.80839 17.682731-21.113877 25.943882-30.990828 11.394515-13.602809 24.87862-24.987091 49.975205-24.987091L553.765731 210.203466c25.62768 0 41.221844 15.041578 47.806819 22.907733 8.575306 10.221806 18.668175 22.26612 27.40107 32.685423 7.767917 9.265014 32.310893 24.790616 52.755528 24.790616l173.463704 0c22.276353 0 40.373523-18.08796 40.373523-40.374546C895.566374 227.926106 877.468181 209.839169 855.192851 209.839169M451.450461 714.515367l0-302.806537c0-22.286586-18.09717-40.373523-40.373523-40.373523s-40.374546 18.086937-40.374546 40.373523l0 302.806537c0 22.286586 18.098193 40.373523 40.374546 40.373523S451.450461 736.802976 451.450461 714.515367" p-id="6268"></path></svg>